<svg xmlns="http://www.w3.org/2000/svg" fill="none" viewBox="0 0 32 32" id="Heart--Streamline-Core" height="32" width="32">
  <desc>
    Heart Streamline Icon: https://streamlinehq.com
  </desc>
  <g id="heart--reward-social-rating-media-heart-it-like-favorite-love">
    <path id="Union" fill="#e2e1e8" fill-rule="evenodd" d="M9.197257142857142 2.4802742857142857c2.2412114285714284 0.1624 4.576548571428571 1.2549257142857142 6.812068571428571 3.4660571428571427 2.2349485714285713 -2.2105142857142854 4.568228571428571 -3.30096 6.807359999999999 -3.4597485714285714 2.527085714285714 -0.17922285714285713 4.761142857142858 0.8421485714285714 6.377599999999999 2.4536 3.1778285714285714 3.1683199999999996 4.175771428571428 8.901394285714284 0.23245714285714283 12.8448 -0.013257142857142856 0.01330285714285714 -0.02697142857142857 0.026285714285714284 -0.04091428571428571 0.03890285714285714L16.77654857142857 29.245485714285714c-0.4354514285714286 0.39428571428571424 -1.099017142857143 0.39428571428571424 -1.5344685714285713 0L2.6327542857142854 17.823885714285712c-0.013942857142857142 -0.012617142857142856 -0.027565714285714284 -0.025599999999999998 -0.04086857142857143 -0.03890285714285714 -3.9639542857142853 -3.9639542857142853 -2.971332571428571 -9.69769142857143 0.21700571428571427 -12.863542857142855 1.62032 -1.6089142857142855 3.8589257142857143 -2.6244342857142855 6.3883657142857135 -2.441165714285714Z" clip-rule="evenodd" stroke-width="2.2857"></path>
  </g>
</svg>